<svg id="Capa_1" enable-background="new 0 0 497.169 497.169" height="512" viewBox="0 0 497.169 497.169" width="512" xmlns="http://www.w3.org/2000/svg"><g><path d="m420.789 174.994c-18.452 20.854-18.451 48.938.002 69.798 2.785 3.148 4.237 7.256 4.237 11.459v225.061c0 8.757-7.099 15.856-15.856 15.856h-36.031l-124.557-12.167-123.883 12.167h-36.704c-8.757 0-15.856-7.099-15.856-15.856v-225.061c0-4.203 1.452-8.311 4.237-11.458 18.453-20.86 18.453-48.938 0-69.799-2.785-3.148-4.237-7.256-4.237-11.458v-10.038c0-38.974 23.644-75.328 63.24-97.249l91.514-50.647c13.495-7.469 29.884-7.469 43.379 0l91.514 50.647c39.595 21.92 63.24 58.275 63.24 97.249v10.036c0 4.203-1.453 8.312-4.239 11.46z" fill="#978ecb"/><path d="m420.794 174.999c-18.46 20.85-18.46 48.93 0 69.79 2.78 3.15 4.23 7.26 4.23 11.46v225.06c0 8.76-7.1 15.86-15.85 15.86h-21.08c8.75 0 15.85-7.1 15.85-15.86v-225.06c0-4.2-1.45-8.31-4.23-11.46-18.46-20.86-18.46-48.94 0-69.79 2.78-3.15 4.23-7.26 4.23-11.46v-10.04c0-38.98-23.64-75.33-63.24-97.25l-91.51-50.65c-3.55-1.96-7.3-3.41-11.15-4.34 10.77-2.61 22.28-1.16 32.23 4.34l91.51 50.65c39.6 21.92 63.24 58.27 63.24 97.25v10.04c0 4.2-1.45 8.31-4.23 11.46z" fill="#8379c1"/><g><path d="m367.988 349.354c-4.143 0-7.5-3.357-7.5-7.5v-31.978l-17.46-17.459c-2.929-2.93-2.929-7.678 0-10.607 2.93-2.928 7.678-2.928 10.607 0l19.656 19.656c1.406 1.407 2.196 3.314 2.196 5.304v35.084c.001 4.143-3.357 7.5-7.499 7.5z" fill="#b87d72"/></g><path d="m364.207 117.495h-5.575c-1.903 0-3.445-1.543-3.445-3.445v-16.598c0-4.107-3.165-7.688-7.27-7.811-4.247-.127-7.73 3.278-7.73 7.497v51.223l15.408 5.938 15.457-5.938v-24.02c0-3.781-3.065-6.846-6.845-6.846z" fill="#fed2a4"/><path d="m299.527 341.855-50.943 7.5-58.332-7.5v-152.746l21.259-12.246c3.92-2.258 8.364-3.446 12.887-3.446h40.897c4.508 0 8.938 1.18 12.848 3.424l21.385 12.268v152.746z" fill="#fff3de"/><path d="m370.741 148.36h-29.714c-3.279 0-5.938 2.658-5.938 5.938v58.265l-35.562-23.454-6.063 36.56 6.063 31.967h35.562 6.029 19.378c8.938 0 16.184-7.246 16.184-16.184v-87.154c-.001-3.279-2.659-5.938-5.939-5.938z" fill="#fff3de"/><path d="m370.741 148.36h-21.084c3.279 0 5.938 2.658 5.938 5.938v87.154c0 8.938-7.246 16.184-16.184 16.184h21.084c8.938 0 16.184-7.246 16.184-16.184v-87.154c0-3.279-2.658-5.938-5.938-5.938z" fill="#ffe5c2"/><path d="m265.295 173.417h-14.204l17.476 10.026c6.109 3.505 9.877 10.01 9.877 17.053v141.358l11.175 4.121 9.91-4.121v-152.745l-21.385-12.268c-3.912-2.243-8.341-3.424-12.849-3.424z" fill="#ffe5c2"/><path d="m148.662 341.855 20.506 7.5 21.084-7.5 8.333-76.373-8.333-76.373-10.754 7.093c-19.251 12.697-30.836 34.215-30.836 57.276z" fill="#fff3de"/><path d="m179.497 240.953c-2.995 1.976-5.802 4.167-8.411 6.543-1.213 1.105-1.919 2.661-1.919 4.302v90.056l10.542 7.5 10.542-7.5v-97.289c0-4.59-5.105-7.339-8.937-4.811z" fill="#ffe5c2"/><path d="m400.737 388.419-152.153-5.25-152.152 5.25 28.057 51.34 124.095 7.91 124.096-7.91z" fill="#c38f86"/><path d="m379.653 388.419-28.057 51.34 10.772 4.91 10.312-4.91 28.057-51.34-10.153-5.25z" fill="#b87d72"/><path d="m447.114 362.829v4.61c0 11.59-9.39 20.98-20.98 20.98h-355.1c-11.59 0-20.98-9.39-20.98-20.98v-4.61c0-11.58 9.39-20.97 20.98-20.97h355.1c11.59 0 20.98 9.39 20.98 20.97z" fill="#97da7b"/><path d="m272.384 364.149c0 8.94-2.61 17.27-7.12 24.27h-75.52c-4.51-7-7.12-15.33-7.12-24.27 0-8.11 2.15-15.72 5.91-22.29h77.93c3.77 6.57 5.92 14.18 5.92 22.29z" fill="#80d261"/><path d="m426.134 341.855h-21.084c11.586 0 20.978 9.392 20.978 20.978v4.609c0 11.586-9.392 20.978-20.978 20.978h21.084c11.586 0 20.978-9.392 20.978-20.978v-4.609c0-11.586-9.392-20.978-20.978-20.978z" fill="#80d261"/><path d="m373.144 497.169h-248.44l-.22-57.41h248.2z" fill="#b87d72"/><path d="m372.68 439.759h-21.084l.46 57.41h21.084z" fill="#ab695d"/><circle cx="248.584" cy="364.152" fill="#ffe177" r="44.88"/><path d="m248.584 319.272c-3.632 0-7.16.443-10.542 1.257 19.698 4.744 34.338 22.469 34.338 43.623s-14.64 38.879-34.338 43.623c3.382.815 6.91 1.258 10.542 1.258 24.787 0 44.88-20.094 44.88-44.88.001-24.788-20.093-44.881-44.88-44.881z" fill="#ffd15b"/><g><path d="m257.815 371.652h-18.461c-4.142 0-7.5-3.357-7.5-7.5s3.358-7.5 7.5-7.5h18.461c4.143 0 7.5 3.357 7.5 7.5s-3.358 7.5-7.5 7.5z" fill="#fff3de"/></g><g><path d="m174.184 438.239v58.93h-15v-58.93c0-4.14 3.36-7.5 7.5-7.5 4.15 0 7.5 3.36 7.5 7.5z" fill="#ab695d"/></g><g><path d="m339.034 438.239v58.93h-15v-58.93c0-4.14 3.36-7.5 7.5-7.5s7.5 3.36 7.5 7.5z" fill="#ab695d"/></g><g><path d="m244.89 241.36c-4.142 0-7.5-3.357-7.5-7.5v-60.443c0-4.143 3.358-7.5 7.5-7.5s7.5 3.357 7.5 7.5v60.443c-.001 4.143-3.358 7.5-7.5 7.5z" fill="#ffe5c2"/></g><path d="m248.837 65.333h-11.857c-17.078 0-30.922 13.844-30.922 30.922v14.643l36.851 5.104 36.851-5.104v-14.643c-.001-17.078-13.845-30.922-30.923-30.922z" fill="#fff3de"/><path d="m248.837 65.333h-11.857c-1.568 0-3.108.119-4.614.344 14.889 2.228 26.308 15.068 26.308 30.578v14.643l9.576 3.674 11.508-3.674v-14.643c.001-17.078-13.843-30.922-30.921-30.922z" fill="#ffe5c2"/><path d="m256.432 173.417h-27.046c-12.883 0-23.327-10.444-23.327-23.327v-39.192h73.701v39.192c-.001 12.883-10.445 23.327-23.328 23.327z" fill="#fed2a4"/><path d="m258.675 110.898v39.192c0 12.884-10.444 23.328-23.328 23.328h21.084c12.883 0 23.328-10.444 23.328-23.328v-39.192z" fill="#ffbd86"/></g></svg>